<mxfile host="app.diagrams.net" agent="Mozilla/5.0 (Windows NT 10.0; Win64; x64) AppleWebKit/537.36 (KHTML, like Gecko) Chrome/140.0.0.0 Safari/537.36 Edg/140.0.0.0" version="28.2.5">
  <diagram name="Página-1" id="mvjARSnryGhcTSXgW0h2">
    <mxGraphModel dx="810" dy="449" grid="1" gridSize="10" guides="1" tooltips="1" connect="1" arrows="1" fold="1" page="1" pageScale="1" pageWidth="827" pageHeight="1169" math="0" shadow="0">
      <root>
        <mxCell id="0" />
        <mxCell id="1" parent="0" />
        <mxCell id="uM99w7ooaBVa5lykk28S-5" value="" style="edgeStyle=orthogonalEdgeStyle;rounded=0;orthogonalLoop=1;jettySize=auto;html=1;" edge="1" parent="1" source="uM99w7ooaBVa5lykk28S-1" target="uM99w7ooaBVa5lykk28S-4">
          <mxGeometry relative="1" as="geometry" />
        </mxCell>
        <mxCell id="uM99w7ooaBVa5lykk28S-1" value="Inicio" style="ellipse;whiteSpace=wrap;html=1;" vertex="1" parent="1">
          <mxGeometry x="20" y="10" width="100" height="30" as="geometry" />
        </mxCell>
        <mxCell id="uM99w7ooaBVa5lykk28S-17" value="" style="edgeStyle=orthogonalEdgeStyle;rounded=0;orthogonalLoop=1;jettySize=auto;html=1;" edge="1" parent="1" source="uM99w7ooaBVa5lykk28S-2" target="uM99w7ooaBVa5lykk28S-16">
          <mxGeometry relative="1" as="geometry" />
        </mxCell>
        <mxCell id="uM99w7ooaBVa5lykk28S-2" value="Escreve &quot;Diz um número&quot;" style="shape=parallelogram;perimeter=parallelogramPerimeter;whiteSpace=wrap;html=1;fixedSize=1;" vertex="1" parent="1">
          <mxGeometry x="10" y="130" width="200" height="30" as="geometry" />
        </mxCell>
        <mxCell id="uM99w7ooaBVa5lykk28S-6" value="" style="edgeStyle=orthogonalEdgeStyle;rounded=0;orthogonalLoop=1;jettySize=auto;html=1;" edge="1" parent="1" source="uM99w7ooaBVa5lykk28S-4" target="uM99w7ooaBVa5lykk28S-2">
          <mxGeometry relative="1" as="geometry" />
        </mxCell>
        <mxCell id="uM99w7ooaBVa5lykk28S-4" value="LER n=0;" style="shape=parallelogram;perimeter=parallelogramPerimeter;whiteSpace=wrap;html=1;fixedSize=1;" vertex="1" parent="1">
          <mxGeometry x="20" y="80" width="180" height="30" as="geometry" />
        </mxCell>
        <mxCell id="uM99w7ooaBVa5lykk28S-11" value="" style="edgeStyle=orthogonalEdgeStyle;rounded=0;orthogonalLoop=1;jettySize=auto;html=1;" edge="1" parent="1" source="uM99w7ooaBVa5lykk28S-8" target="uM99w7ooaBVa5lykk28S-10">
          <mxGeometry relative="1" as="geometry" />
        </mxCell>
        <mxCell id="uM99w7ooaBVa5lykk28S-14" value="Sim" style="edgeLabel;html=1;align=center;verticalAlign=middle;resizable=0;points=[];" vertex="1" connectable="0" parent="uM99w7ooaBVa5lykk28S-11">
          <mxGeometry x="0.0543" y="1" relative="1" as="geometry">
            <mxPoint as="offset" />
          </mxGeometry>
        </mxCell>
        <mxCell id="uM99w7ooaBVa5lykk28S-13" value="" style="edgeStyle=orthogonalEdgeStyle;rounded=0;orthogonalLoop=1;jettySize=auto;html=1;" edge="1" parent="1" source="uM99w7ooaBVa5lykk28S-8" target="uM99w7ooaBVa5lykk28S-12">
          <mxGeometry relative="1" as="geometry" />
        </mxCell>
        <mxCell id="uM99w7ooaBVa5lykk28S-15" value="Não" style="edgeLabel;html=1;align=center;verticalAlign=middle;resizable=0;points=[];" vertex="1" connectable="0" parent="uM99w7ooaBVa5lykk28S-13">
          <mxGeometry x="-0.1163" relative="1" as="geometry">
            <mxPoint as="offset" />
          </mxGeometry>
        </mxCell>
        <mxCell id="uM99w7ooaBVa5lykk28S-8" value="n MOD 2 == 0" style="rhombus;whiteSpace=wrap;html=1;" vertex="1" parent="1">
          <mxGeometry x="145" y="185" width="90" height="90" as="geometry" />
        </mxCell>
        <mxCell id="uM99w7ooaBVa5lykk28S-23" style="edgeStyle=orthogonalEdgeStyle;rounded=0;orthogonalLoop=1;jettySize=auto;html=1;exitX=0.5;exitY=0;exitDx=0;exitDy=0;entryX=1;entryY=0.5;entryDx=0;entryDy=0;" edge="1" parent="1" source="uM99w7ooaBVa5lykk28S-10" target="uM99w7ooaBVa5lykk28S-2">
          <mxGeometry relative="1" as="geometry">
            <Array as="points">
              <mxPoint x="336" y="145" />
            </Array>
          </mxGeometry>
        </mxCell>
        <mxCell id="uM99w7ooaBVa5lykk28S-10" value="Escreve &quot;Número é par&quot;" style="shape=parallelogram;perimeter=parallelogramPerimeter;whiteSpace=wrap;html=1;fixedSize=1;" vertex="1" parent="1">
          <mxGeometry x="259" y="260" width="155" height="25" as="geometry" />
        </mxCell>
        <mxCell id="uM99w7ooaBVa5lykk28S-24" style="edgeStyle=orthogonalEdgeStyle;rounded=0;orthogonalLoop=1;jettySize=auto;html=1;exitX=0.75;exitY=0;exitDx=0;exitDy=0;entryX=1;entryY=0.25;entryDx=0;entryDy=0;" edge="1" parent="1" source="uM99w7ooaBVa5lykk28S-12" target="uM99w7ooaBVa5lykk28S-2">
          <mxGeometry relative="1" as="geometry">
            <mxPoint x="430" y="240" as="targetPoint" />
            <Array as="points">
              <mxPoint x="275" y="300" />
              <mxPoint x="430" y="300" />
              <mxPoint x="430" y="138" />
            </Array>
          </mxGeometry>
        </mxCell>
        <mxCell id="uM99w7ooaBVa5lykk28S-12" value="Escreve &quot;Número não é par&quot;" style="shape=parallelogram;perimeter=parallelogramPerimeter;whiteSpace=wrap;html=1;fixedSize=1;" vertex="1" parent="1">
          <mxGeometry x="140" y="320" width="180" height="30" as="geometry" />
        </mxCell>
        <mxCell id="uM99w7ooaBVa5lykk28S-19" value="" style="edgeStyle=orthogonalEdgeStyle;rounded=0;orthogonalLoop=1;jettySize=auto;html=1;" edge="1" parent="1" source="uM99w7ooaBVa5lykk28S-16" target="uM99w7ooaBVa5lykk28S-18">
          <mxGeometry relative="1" as="geometry" />
        </mxCell>
        <mxCell id="uM99w7ooaBVa5lykk28S-26" value="Sim" style="edgeLabel;html=1;align=center;verticalAlign=middle;resizable=0;points=[];" vertex="1" connectable="0" parent="uM99w7ooaBVa5lykk28S-19">
          <mxGeometry x="-0.697" relative="1" as="geometry">
            <mxPoint as="offset" />
          </mxGeometry>
        </mxCell>
        <mxCell id="uM99w7ooaBVa5lykk28S-22" value="" style="edgeStyle=orthogonalEdgeStyle;rounded=0;orthogonalLoop=1;jettySize=auto;html=1;" edge="1" parent="1" source="uM99w7ooaBVa5lykk28S-16" target="uM99w7ooaBVa5lykk28S-8">
          <mxGeometry relative="1" as="geometry" />
        </mxCell>
        <mxCell id="uM99w7ooaBVa5lykk28S-25" value="Não" style="edgeLabel;html=1;align=center;verticalAlign=middle;resizable=0;points=[];" vertex="1" connectable="0" parent="uM99w7ooaBVa5lykk28S-22">
          <mxGeometry x="-0.4609" relative="1" as="geometry">
            <mxPoint as="offset" />
          </mxGeometry>
        </mxCell>
        <mxCell id="uM99w7ooaBVa5lykk28S-16" value="n == 0" style="rhombus;whiteSpace=wrap;html=1;" vertex="1" parent="1">
          <mxGeometry x="30" y="210" width="80" height="80" as="geometry" />
        </mxCell>
        <mxCell id="uM99w7ooaBVa5lykk28S-21" value="" style="edgeStyle=orthogonalEdgeStyle;rounded=0;orthogonalLoop=1;jettySize=auto;html=1;" edge="1" parent="1" source="uM99w7ooaBVa5lykk28S-18" target="uM99w7ooaBVa5lykk28S-20">
          <mxGeometry relative="1" as="geometry" />
        </mxCell>
        <mxCell id="uM99w7ooaBVa5lykk28S-18" value="Escreve &quot;&lt;font style=&quot;font-size: 12px;&quot;&gt;&lt;span style=&quot;margin: 0px; padding: 1.36057px 0px 0px; user-select: text; -webkit-user-drag: none; -webkit-tap-highlight-color: transparent; touch-action: pan-x pan-y; font-variant-numeric: normal; font-variant-east-asian: normal; font-variant-alternates: normal; font-variant-position: normal; font-variant-emoji: normal; letter-spacing: 0px; text-align: left; white-space-collapse: preserve; background-color: rgb(245, 245, 245); opacity: 0.8; font-family: Calibri, Calibri_EmbeddedFont, Calibri_MSFontService, sans-serif; font-kerning: normal; line-height: 25px; vertical-align: -1.36057px;&quot; lang=&quot;PT-PT&quot; class=&quot;TextRun  BCX8 SCXP216364692&quot; data-contrast=&quot;none&quot; data-usefontface=&quot;false&quot; data-scheme-color=&quot;@FFFFFF,0,0:80000&quot;&gt;&lt;span style=&quot;margin: 0px; padding: 0px; user-select: text; -webkit-user-drag: none; -webkit-tap-highlight-color: transparent; touch-action: pan-x pan-y; vertical-align: 1.36057px; line-height: 0px; position: relative;&quot; class=&quot;NormalTextRun  BCX8 SCXP216364692&quot;&gt;Digitou 0 - vai sair do &lt;/span&gt;&lt;/span&gt;&lt;span style=&quot;margin: 0px; padding: 1.36057px 0px 0px; user-select: text; -webkit-user-drag: none; -webkit-tap-highlight-color: transparent; touch-action: pan-x pan-y; font-variant-numeric: normal; font-variant-east-asian: normal; font-variant-alternates: normal; font-variant-position: normal; font-variant-emoji: normal; letter-spacing: 0px; text-align: left; white-space-collapse: preserve; background-color: rgb(245, 245, 245); opacity: 0.8; font-family: Calibri, Calibri_EmbeddedFont, Calibri_MSFontService, sans-serif; font-kerning: normal; line-height: 25px; vertical-align: -1.36057px;&quot; lang=&quot;PT-PT&quot; class=&quot;TextRun  BCX8 SCXP216364692&quot; data-contrast=&quot;none&quot; data-usefontface=&quot;false&quot; data-scheme-color=&quot;@FFFFFF,0,0:80000&quot;&gt;&lt;span style=&quot;margin: 0px; padding: 0px; user-select: text; -webkit-user-drag: none; -webkit-tap-highlight-color: transparent; touch-action: pan-x pan-y; vertical-align: 1.36057px; line-height: 0px; position: relative;&quot; class=&quot;NormalTextRun  BCX8 SCXP216364692&quot;&gt;programa&lt;/span&gt;&lt;/span&gt;&lt;/font&gt;&quot;" style="shape=parallelogram;perimeter=parallelogramPerimeter;whiteSpace=wrap;html=1;fixedSize=1;" vertex="1" parent="1">
          <mxGeometry y="360" width="200" height="50" as="geometry" />
        </mxCell>
        <mxCell id="uM99w7ooaBVa5lykk28S-20" value="Fim" style="ellipse;whiteSpace=wrap;html=1;" vertex="1" parent="1">
          <mxGeometry x="55" y="480" width="90" height="25" as="geometry" />
        </mxCell>
      </root>
    </mxGraphModel>
  </diagram>
</mxfile>
